<svg xmlns="http://www.w3.org/2000/svg" xmlns:xlink="http://www.w3.org/1999/xlink" width="500" zoomAndPan="magnify" viewBox="0 0 375 374.999991" height="500" preserveAspectRatio="xMidYMid meet" version="1.0"><defs><clipPath id="d2497776f5"><path d="M 33 15.128906 L 170 15.128906 L 170 169 L 33 169 Z M 33 15.128906 " clip-rule="nonzero"/></clipPath><clipPath id="17e4cd2f28"><path d="M 27.574219 15.128906 L 340 15.128906 L 340 360 L 27.574219 360 Z M 27.574219 15.128906 " clip-rule="nonzero"/></clipPath></defs><g clip-path="url(#d2497776f5)"><path fill="#50c4ef" d="M 166.15625 111.710938 C 150.457031 96.015625 130.003906 87.972656 108.570312 89.0625 C 88.109375 90.101562 68.140625 99.335938 52.3125 115.078125 C 52.242188 115.144531 52.175781 115.210938 52.109375 115.277344 C 44.597656 122.789062 38.671875 131.507812 34.492188 141.183594 C 32.308594 146.242188 34.148438 152.136719 38.824219 155.046875 C 39.828125 155.671875 61.292969 168.8125 90.019531 168.8125 C 93.363281 168.8125 96.804688 168.636719 100.324219 168.238281 C 130.636719 164.824219 156.511719 138.539062 166.230469 127.398438 L 166.351562 127.257812 C 166.878906 126.703125 167.359375 126.085938 167.773438 125.410156 C 170.46875 121.019531 169.800781 115.355469 166.15625 111.710938 Z M 97.832031 146.113281 C 82.417969 147.851562 68.65625 144.011719 60.015625 140.605469 C 62.238281 137.246094 64.800781 134.097656 67.683594 131.191406 C 67.742188 131.132812 67.800781 131.078125 67.859375 131.019531 C 89.945312 108.933594 119.683594 105.222656 142.097656 120.539062 C 132.148438 130.320312 115.273438 144.148438 97.832031 146.113281 Z M 165.003906 128.464844 C 165.367188 128.1875 165.714844 127.890625 166.042969 127.570312 C 165.726562 127.882812 165.378906 128.179688 165.003906 128.464844 Z M 59.003906 47.855469 C 59.003906 29.808594 73.683594 15.128906 91.730469 15.128906 C 109.777344 15.128906 124.460938 29.808594 124.460938 47.855469 C 124.460938 65.902344 109.777344 80.585938 91.730469 80.585938 C 73.683594 80.585938 59.003906 65.902344 59.003906 47.855469 Z M 59.003906 47.855469 " fill-opacity="1" fill-rule="nonzero"/></g><g clip-path="url(#17e4cd2f28)"><path fill="#046de4" d="M 314.882812 115.273438 C 282.335938 82.734375 229.375 82.734375 196.828125 115.277344 L 175.625 136.480469 C 140.222656 171.882812 105.859375 198.867188 43.703125 170.332031 C 40.105469 168.679688 35.898438 169.0625 32.660156 171.339844 C 29.417969 173.617188 27.632812 177.441406 27.964844 181.386719 C 29.621094 200.96875 38.195312 219.417969 52.109375 233.332031 L 175.371094 356.589844 C 177.546875 358.761719 180.394531 359.847656 183.246094 359.847656 C 183.328125 359.847656 183.414062 359.847656 183.496094 359.84375 C 183.582031 359.847656 183.660156 359.839844 183.746094 359.847656 C 186.699219 359.847656 189.53125 358.675781 191.621094 356.589844 L 314.882812 233.332031 L 314.882812 233.328125 C 347.425781 200.78125 347.425781 147.824219 314.882812 115.273438 Z M 299.136719 217.585938 L 183.496094 333.222656 L 67.855469 217.585938 C 62.34375 212.078125 57.980469 205.605469 54.9375 198.550781 C 80.976562 206.773438 104.839844 206.695312 127.402344 198.386719 C 153.414062 188.804688 174.058594 169.535156 191.371094 152.222656 L 212.570312 131.019531 C 236.4375 107.15625 275.269531 107.15625 299.136719 131.019531 C 323 154.886719 323 193.71875 299.136719 217.585938 Z M 235.785156 47.855469 C 235.785156 29.808594 250.464844 15.128906 268.515625 15.128906 C 286.5625 15.128906 301.242188 29.808594 301.242188 47.855469 C 301.242188 65.902344 286.5625 80.585938 268.515625 80.585938 C 250.464844 80.585938 235.785156 65.902344 235.785156 47.855469 Z M 235.785156 47.855469 " fill-opacity="1" fill-rule="nonzero"/></g></svg>